<svg xmlns="http://www.w3.org/2000/svg" viewBox="0 0 926.18 400.21" enable-background="new 0 0 926.18 400.21"><style type="text/css">.st0{fill:#FFFFFF;}</style><path class="st0" d="M191.78 173c-1.2 0-7.6 11.8-26.6 11.8-33.6 0-50-21.6-63.6-43.2 30.2-23.6 52.6-65.2 52.6-97.2 0-24.2-12.8-40.6-31.2-40.6-8.4 0-14.2-3.8-24-3.8-44.2 0-95.2 65.4-95.2 108.4 0 33.6 18.6 51.8 50.8 51.8 7 0 19.2-2.2 25.8-5.6 15.6 24.6 36.4 54 72.6 54 25.2 0 40.2-20.6 40.2-33.8 0-1-.4-1.8-1.4-1.8zm-132.79-39.2c-4.6 0-8.4-.6-11.6-1.8-1.8-1.6-2.8-3.8-2.8-6.2 0-2.8 2.2-6.6 6-6.6 6.6 0 12 5.2 16.8 12.8-1.6.2-6.8 1.8-8.4 1.8zm30.8-11.4c-9-13.6-18.8-24-33.8-24-10.6 0-18.8 8.6-18.8 19.2 0 2.4.2 4.6.6 6.8-2.2-3.8-3.2-8.4-3.2-13.8 0-35 45.4-96.4 79.6-96.4 15.2 0 21.6 10.4 21.6 24.8 0 25.6-20 64.4-46 83.4zM750.78 43.6c10 0 19.4-8 19.4-18.4 0-9.6-8.2-16.4-17.6-16.4-10 0-19.4 8-19.4 18.4 0 9.6 8.2 16.4 17.6 16.4zM862.38 158.6c33.2 0 63.8-42.4 63.8-49.6 0-3-.2-6.6-2.4-6.6-2.4 0-24.4 39.6-51 39.6-7.4 0-10.6-5.6-10.6-14.4 0-4.8 1.6-10.4 4.2-16.4.6.2 1.2.2 1.8.2 32.2 0 54.4-26 54.4-41 0-7.8-6-15.2-12.4-15.2-4.2 0-8 2.2-15.2 2.2-19.59 0-40.89 24.37-50.93 47.4-6.4 8.42-22.85 33-31.47 33-4 0-4.6-1.8-4.6-4.2 0-8.6 22.6-49.4 25.2-54.8 2.8-5.4 5.2-8.8 5.2-14.2 0-3.6-9.6-8.6-17-8.6-11 0-33.8 26.6-37.4 30.2l-.2-.2c1-3.4 7.8-18.2 7.8-23.2 0-5.6-10.8-8.2-13.8-8.2-5.05 0-19.81 26.39-31.45 50.64-6.88 9.14-24.18 34.56-34.35 34.56-1.6 0-2.8-1.2-2.8-4.2 0-13.8 30-66.2 34.2-74.2.4-.6.6-1.2.6-1.6 0-3.4-7-4.4-12-4.4-2.4 0-4.4.2-5.2.4-6.82 2.81-23.02 26.27-33.02 48.8-6.11 7.96-22.82 33-33.58 33-2.8 0-7.2-1.4-7.2-8 0-9.4 15.2-36.6 30-64.2 8.6 0 8-.2 10.6-.2 6 0 14.8-6.4 14.8-13.6 0-1.8-1.8-3-5.6-3h-10.8c7.2-13.4 10.2-19.4 10.2-21.8 0-4.4-5.6-13-14.8-13-2.4 0-12.2 17.2-21 33.6-1.8 0-7.8 1.2-10.6 1.2-2.4 0-5.2-.2-6.2-.2-1.4 0-1.8.4-2 1.4-.4 1.4-.4 4.8-.4 8.2 0 5 6.2 6.2 10.2 6.6l-2.4 4.4c-4.72 8.77-11.97 21.64-18.32 34.26-5.22 6.3-23.44 34.54-32.68 34.54-4 0-4.6-1.8-4.6-4.2 0-8.6 22.6-49.4 25.2-54.8 2.8-5.4 5.2-8.8 5.2-14.2 0-3.6-9.6-8.6-17-8.6-11 0-33.8 26.6-37.4 30.2l-.2-.2c1-3.4 7.8-18.2 7.8-23.2 0-5.6-10.8-8.2-13.8-8.2-5.02 0-19.63 26.08-31.24 50.2-6.3 8.16-22.68 32.8-33.36 32.8-2 0-3-1.4-3-3.4 0-12.4 35.2-62 35.2-73 0-2.8-3-3.2-5-3.6-2.4-.6-2.2-1.2-5.8-1.2s-14.2 13-15.2 13c-.6 0-2-13.8-18.2-13.8-24.26 0-49.61 25.39-61.17 50.5-2.77 3.67-7.24 10.06-12.23 16.1-6.8 8.4-15.8 16.2-20.8 16.2-2 0-2.8-1.6-2.8-3 0-15.6 20.6-44.6 28.2-52.8 4.4-5 10.6-8.2 10.6-11.8 0-4.6-7.4-15.6-13-15.6-2.8 0-14 1.6-23.4 1.6-3.2 0-4.4-.6-4.4-1.4 0-.6 2-2.2 2-6.2 0-3.4-1.6-5.2-4.6-5.2-6.6 0-9.6 2-13.6 12-3.8 9-5 17.6-11 29.6-4.06 8.57-8.01 15.11-10.82 19.44-6.42 8.39-22.6 32.56-33.18 32.56-2 0-3-1.4-3-3.4 0-12.4 35.2-62 35.2-73 0-2.8-3-3.2-5-3.6-2.4-.6-2.2-1.2-5.8-1.2s-14.2 13-15.2 13c-.6 0-2-13.8-18.2-13.8-23.96 0-48.98 24.75-60.73 49.55-6.52 8.74-22.74 32.64-31.07 32.64-4.2 0-4.8-1.8-4.8-4.2 0-8.6 22.6-49.4 25.4-54.8 2.6-5.4 5.8-10.4 5.8-15.8 0-3.6-7.4-7-17.2-7-4.4 0-17.4 29.8-27.4 46.4-11.4 19.4-27.8 37.4-32.4 37.4-1.6 0-2.8-1.2-2.8-4.2 0-13.8 30-66.2 34.2-74.2.4-.6.6-1.2.6-1.6 0-3.4-7-4.4-12-4.4-2.4 0-4.4.2-5.2.4-10.2 4.2-41.4 54.6-41.4 79 0 11.4 9.2 23 18.2 23 9.2 0 24.6-17.2 27.8-21.8-.2 1.2-.2 1.8-.2 3.8 0 10.4 8.8 17.8 18.4 17.8 11.62 0 26.83-15.12 37.28-28.63-.05.82-.08 1.63-.08 2.43 0 17.8 10.8 26.8 21.8 26.8 16.6 0 31.2-18.4 31.8-18.4.6 0 3.8 16.6 17.8 16.6 13.27 0 33.4-25.12 42.21-38.74l.19-.26c7-10 16.8-24.6 26.6-40.6.2-.4.8-.6 1.6-.6 3.4 0 10 2.8 10 3.2 0 .6-27 36.6-27 56.2 0 14.4 9.8 21.8 22.4 21.8 10.33 0 24.82-15.29 34.88-28.52-.05.85-.09 1.69-.09 2.52 0 17.8 10.8 26.8 21.8 26.8 16.6 0 31.2-18.4 31.8-18.4.6 0 3.8 16.6 17.8 16.6 8.05 0 18.64-9.26 27.68-19.58-1.2 3.41-1.88 5.93-1.88 7.18 0 7.4 8.8 13.4 12.8 13.4 4.2 0 8.2-11.8 19.2-28.6 11.2-17 32.8-41.2 43.8-51.8l.8.4c-5.2 7.2-26.2 39.6-26.2 62.4 0 10.4 9 17.8 18.4 17.8 10.12 0 23-11.46 33.11-23.34-.33 1.61-.51 3.07-.51 4.34 0 11.6 14.8 19 27.8 19 10.04 0 24.22-14.79 34.41-28.03-.26 1.84-.41 3.6-.41 5.23 0 11.4 6.4 23 16.4 23 9.72 0 21.24-9.79 30.74-20.58-1.11 3.21-1.74 5.58-1.74 6.78 0 7.4 8.8 13.4 12.8 13.4 4.2 0 8.2-11.8 19.2-28.6 11.2-17 32.8-41.2 43.8-51.8l.8.4c-5.2 7.2-26.2 39.6-26.2 62.4 0 10.4 9 17.8 18.4 17.8 12.08 0 28.1-16.32 38.62-30.21-.01.34-.02.68-.02 1.01.01 16.41 10.61 30.21 24.21 30.21zm41.8-91.8c2.4 0 3.6 1.2 3.6 3.4 0 11.4-20.6 27.6-36.4 31 10-17.6 25.8-34.4 32.8-34.4zm-616.79 54.2v1.6c1.6 0 5.8.4 5.8 2 0 3.8-14 13.4-19.2 13.4-4 0-6.2-3.6-6.2-10 0-19.6 23.4-61.4 39.6-61.4 4.8 0 8.2 4.8 8.2 11 0 18.4-23 42-28.2 43.4zm182.19 0v1.6c1.6 0 5.8.4 5.8 2 0 3.8-14 13.4-19.2 13.4-4 0-6.2-3.6-6.2-10 0-19.6 23.4-61.4 39.6-61.4 4.8 0 8.2 4.8 8.2 11 0 18.4-23 42-28.2 43.4zM96.83 364.32c4.85-10.97 7.28-24.2 7.28-39.7h-18.95c0 11.72-1.51 21.73-4.54 30.03-.5 1.37-1.05 2.67-1.63 3.93l-29.19-31.03c-3.39-3.58-6.28-7.36-8.69-11.33-2.41-3.97-4.23-7.97-5.47-12.01-1.24-4.04-1.86-7.94-1.86-11.72 0-6.25 1.58-11.08 4.74-14.5s7.63-5.13 13.43-5.13c5.73 0 10.16 1.58 13.28 4.74 3.13 3.16 4.69 7.63 4.69 13.43v1.95h19.92v-1.95c0-11.98-3.31-21.24-9.91-27.78-6.61-6.54-15.93-9.81-27.98-9.81-12.11 0-21.48 3.4-28.13 10.21-6.64 6.8-9.96 16.42-9.96 28.86 0 5.73.85 11.34 2.54 16.85 1.24 4.04 2.89 7.98 4.94 11.82-4.6 2.03-8.53 4.81-11.77 8.35-6.38 6.94-9.57 16.22-9.57 27.81 0 8.59 1.64 15.93 4.93 22.02s8.07 10.73 14.36 13.92c6.28 3.19 13.85 4.79 22.71 4.79 13.09 0 24.28-2.88 33.59-8.64 1.46-.9 2.85-1.88 4.2-2.91l9.66 10.08h25.29l-22.42-23.84c1.67-2.62 3.18-5.43 4.51-8.44zm-29.5 9.33c-5.83 4.36-12.81 6.54-20.95 6.54-8.59 0-15.25-2-19.97-6.01-4.72-4-7.08-9.62-7.08-16.85 0-7.36 2.21-13.05 6.64-17.09 1.72-1.57 3.73-2.82 6.01-3.78 1.08 1.24 2.2 2.47 3.36 3.69l32.05 33.44-.06.06zM548.34 338.39h-34.57v6.64c0 10.35-1.06 17.43-3.17 21.24-2.12 3.81-5.81 5.71-11.08 5.71-5.66 0-9.54-2.62-11.62-7.86s-3.13-19.48-3.13-42.72v-2.83c0-21.61 1.04-34.94 3.13-39.99 2.08-5.04 5.96-7.57 11.62-7.57 5.21 0 8.92 2.07 11.13 6.2 2.21 4.13 3.38 11.31 3.52 21.53l34.18.1v-1.46c0-18.23-4.12-31.92-12.35-41.06-8.24-9.15-20.59-13.72-37.06-13.72-9.57 0-17.81 1.64-24.71 4.93-6.9 3.29-12.47 8.19-16.7 14.7-3 4.69-5.14 11.2-6.45 19.53-1.3 8.33-1.95 21.55-1.95 39.65 0 18.1.65 31.32 1.95 39.65 1.3 8.33 3.45 14.84 6.45 19.53 4.3 6.58 9.93 11.49 16.89 14.75 6.97 3.25 15.33 4.88 25.1 4.88 16.6 0 28.92-4.44 36.96-13.33s12.06-22.51 12.06-40.87c0-2.08-.02-3.65-.05-4.69-.04-1.05-.09-2.02-.15-2.94zM634.77 303.04h-28.23v-56.83h-35.15v150.39h35.15v-62.4h28.23v62.4h34.37v-150.39h-34.37zM693.55 246.21h35.16v150.39h-35.16zM788.28 246.21h-35.15v150.39h77.44v-30.37h-42.29zM881.25 246.21h-35.16v150.39h77.45v-30.37h-42.29z"/></svg>