<svg xmlns="http://www.w3.org/2000/svg" id="recipe" viewBox="0 0 919.18 630" enable-background="new 0 0 919.18 630"><style type="text/css">.recipe0{stroke:#FFFFFF;stroke-width:5;stroke-miterlimit:10;} .recipe1{stroke:#FFFFFF;stroke-width:7;stroke-miterlimit:10;} .recipe2{stroke:#000000;stroke-miterlimit:10;}</style><circle cx="397.68" cy="315" r="315"/><circle class="recipe0" cx="397.18" cy="315.5" r="297.5"/><circle class="recipe1" cx="397.18" cy="311.5" r="212.5"/><path class="recipe2" d="M728.99 221.23c-.07-31.84.02-67.64 7.79-116.37 5.57-34.95 13.44-65.82 21.55-91.87 2.4-4.74 7.35-7.51 12.35-6.99 6.4.67 9.43 6.39 9.65 6.81l8.7 589.95c-1.87 8.84-9.9 14.87-18.35 14.24-7.48-.56-13.95-6.23-15.65-13.97l4.98-254.05c-1.33-.06-3.22-.27-5.33-.99-24.92-8.45-25.56-68.3-25.69-126.76zM842.68 600c3.04 9.35 12.06 15.13 21 14 7.38-.94 13.69-6.45 16-14l-9-341c-.03-1.32-.84-7.01 1-14 1.64-6.24 4.64-10.93 7-14 9.43-9.06 24.2-25.83 33-51 12.81-36.63 4.88-67.78 1-83-3.7-14.54-7.76-21.48-11-26-3.67-5.11-17.43-24.25-40-25-17.09-.57-33.22 8.27-42 23-.9 1.5-2.79 3.93-5.13 7.86-5.3 8.91-7.71 16.53-8.87 20.14-1.53 4.8-5.69 19.07-6 45-.21 17.74-.32 26.61 2 35 5.83 21.1 21.98 44.07 31 54 1.23 1.36 5.44 5.84 8 13 2.32 6.48 2.29 12.37 2 16 .57 31.98.98 64.17 1.23 96.57.64 82.48.19 163.64-1.23 243.43zM901.68 265"/><path class="recipe2" d="M26.68 248l-6 354c.89 8.89 8.28 15.75 17 16 9.08.26 17.06-6.73 18-16l-7-354c2.42-6.43 5.52-10.46 8-13 1.74-1.78 3.58-3.24 7-7 1.4-1.54 3.07-3.38 5-6 1.61-2.18 3.37-4.56 5-8 1.01-2.11 2.21-5.14 3-9-1.05-23.92-2.38-48.26-4-73-1.99-30.33-4.34-60-7-89l-6 119c-.52 1.77-2.15 3-4 3s-3.48-1.23-4-3l-4-119-6 119c-.11 1.99-1.4 3.62-3 4-2.1.49-4.66-1.2-5-4l-4-119-6 118c-.32 2.15-2.01 3.79-4 4-2.31.25-4.59-1.47-5-4l-3-118c-4.61 29.51-8.24 61.96-10 97-1.15 22.79-1.4 44.51-1 65 .55 4.6 2.11 11.83 7 19 1.63 2.39 3.36 4.38 5 6 2.33 1.83 5.21 4.44 8 8 2.89 3.69 4.77 7.23 6 10z"/></svg>
